<?xml version="1.0" standalone="no"?><!DOCTYPE svg PUBLIC "-//W3C//DTD SVG 1.1//EN" "http://www.w3.org/Graphics/SVG/1.1/DTD/svg11.dtd"><svg t="1495877976920" class="icon" style="" viewBox="0 0 1024 1024" version="1.1" xmlns="http://www.w3.org/2000/svg" p-id="4914" xmlns:xlink="http://www.w3.org/1999/xlink" width="32" height="32"><defs><style type="text/css"></style></defs><path d="M511.142981 930.646845c-5.895267 0-11.791557-1.819438-16.872273-5.457292C193.223235 708.812481 64.775794 534.361287 64.775794 341.844645c0-148.077523 96.898911-259.747859 225.347374-259.747859 113.896026 0 184.266747 56.258305 221.019813 108.596324 36.68962-52.369741 107.123786-108.596324 221.018789-108.596324 128.447441 0 225.347374 111.670336 225.347374 259.747859 0 192.483896-128.446417 366.967836-429.495938 583.344908C522.933515 928.827407 517.038248 930.646845 511.142981 930.646845zM290.123168 139.922796c-95.520517 0-167.521365 86.802972-167.521365 201.922872 0 168.30624 116.466572 325.728596 388.541177 524.20088 272.071535-198.472284 388.540154-355.926362 388.540154-524.20088 0-115.119901-72.063269-201.922872-167.521365-201.922872-152.281265 0-191.856609 117.253494-193.424314 122.239042-3.889587 11.948123-15.051811 20.10285-27.595498 20.10285l-0.125867 0c-12.606109-0.063445-23.707958-8.217149-27.471678-20.258393C481.976708 257.17629 442.40341 139.922796 290.123168 139.922796z" p-id="4915"></path></svg>