<?xml version="1.0" standalone="no"?><!DOCTYPE svg PUBLIC "-//W3C//DTD SVG 1.1//EN" "http://www.w3.org/Graphics/SVG/1.1/DTD/svg11.dtd"><svg t="1495277854271" class="icon" style="" viewBox="0 0 1024 1024" version="1.1" xmlns="http://www.w3.org/2000/svg" p-id="677" xmlns:xlink="http://www.w3.org/1999/xlink" width="128" height="128"><defs><style type="text/css"></style></defs><path d="M636 405.3c9 38.8 19.2 74.3 25.3 110.4 15.9 93.8-52.5 152.7-116.4 164-75.7 13.4-149.3-37.4-166.8-115.6C355.2 462 404.6 369.9 502.5 332c6-2.3 12-4.8 20.3-8-3.5-13.1-6.7-26.5-10.6-39.7-27.2-91.8 60.2-175.9 151-151.6 24.9 6.6 48.6 20.5 70.3 35 22 14.7 23.9 41.8 8.5 61.4-15 19.1-40.9 21.2-62.5 6.6-11-7.5-23.2-14.4-35.8-18-28.1-7.9-49.1 9.7-46.3 38.8 1.6 17 6.9 33.8 11.6 50.4 0.9 3.3 6.6 7.4 10.3 7.6 172.5 10.7 319.5 231.4 182 437.8C695.9 910.4 463.6 943.5 310 823.9 92.8 654.8 132.1 320 382.9 206.5c12.9-5.8 27.9-10.1 41.7-9.7 19 0.6 32.9 17.4 35.9 36.5 2.9 18.7-6.7 35.6-24.5 45.2-25.1 13.6-52.5 24.6-74.4 42.2-90 72.8-124.5 168.1-97 280.4 26.9 109.8 97.5 181.5 210.2 202.9 104.2 19.8 226.4-21.6 275.9-139.4 39.3-93.4 12.8-194.6-86.1-248.5-8.6-4.6-18.4-7-28.6-10.8z m-90.2 4c-27 8.2-48.3 21.3-64.6 41.7-25.9 32.5-28.7 86.7-6.4 118.9 13.8 19.9 35.2 28.4 57.9 22.9 23.3-5.6 36.7-20.2 39.4-45.5 1.3-12.2 1.8-25.2-0.8-37.1-7.4-33.1-16.5-65.9-25.5-100.9z" p-id="678" fill="#e6e6e6"></path></svg>