<?xml version="1.0" standalone="no"?><!DOCTYPE svg PUBLIC "-//W3C//DTD SVG 1.1//EN" "http://www.w3.org/Graphics/SVG/1.1/DTD/svg11.dtd"><svg t="1495279801124" class="icon" style="" viewBox="0 0 1024 1024" version="1.1" xmlns="http://www.w3.org/2000/svg" p-id="1005" xmlns:xlink="http://www.w3.org/1999/xlink" width="32" height="32"><defs><style type="text/css"></style></defs><path d="M903.15896 64.97892l-558.802315 125.7234c0 0-41.908153 9.530051-41.908153 41.912575L302.448492 800.60714c-20.954076-5.835915-44.675286-9.216919-69.84965-9.216919-84.883657 0-153.671072 37.519522-153.671072 83.812871 0 46.297442 68.787414 83.816964 153.671072 83.816964 84.882634 0 153.672095-37.519522 153.672095-83.816964L386.270937 429.916517l474.97987-103.569844 0 348.56572c-20.9551-5.840008-44.675286-9.221012-69.84965-9.221012-84.88161 0-153.672095 37.519522-153.672095 83.816964 0 46.293349 68.790484 83.817987 153.672095 83.817987s153.670048-37.524638 153.670048-83.817987L945.071206 106.915032c0-23.161512-18.776391-41.907459-41.911223-41.907459L903.159983 64.97892zM903.15896 64.97892" p-id="1006" fill="#515151"></path></svg>